<?xml version="1.0" encoding="UTF-8"?>
<svg id="Layer_1" data-name="Layer 1" xmlns="http://www.w3.org/2000/svg" xmlns:xlink="http://www.w3.org/1999/xlink" viewBox="0 0 194.94 190.75">
  <defs>
    <style>
      .cls-1 {
        fill: url(#linear-gradient);
      }
    </style>
    <linearGradient id="linear-gradient" x1="59.33" y1="170.59" x2="146.46" y2="4.83" gradientUnits="userSpaceOnUse">
      <stop offset="0" stop-color="#00454e"/>
      <stop offset=".69" stop-color="#06c3bb"/>
      <stop offset="1" stop-color="#89dfd6"/>
    </linearGradient>
  </defs>
  <path class="cls-1" d="M173.37,116.67c1.84-6.79,2.81-13.92,2.81-21.29,0-44.92-36.41-81.34-81.34-81.34S13.51,50.45,13.51,95.38c0,2.46.11,4.88.32,7.29l11.2-1.42c-.16-1.93-.24-3.89-.24-5.86,0-38.69,31.37-70.06,70.06-70.06s70.06,31.37,70.06,70.06c0,6.08-.77,11.97-2.23,17.59-.75-.17-1.5-.32-2.25-.45-10.14-1.69-29.71-1.63-41.09,6.76,0,0-2.15-18.07-9.69-28.28-7.54-10.21-15.17-14.79-15.17-14.79-7.72,5.32-15.43,13.59-20,23.91-3.67,8.29-4.81,19.7-4.81,19.7,0,0-6.54-2.15-12.87-3.46-6.34-1.32-17.07-1.22-21.94-1.02-1.6.06-4.21.31-7,.6-4.52.48-9.5,1.11-11.36,1.35,9.57,34.28,41.02,59.43,78.35,59.43,27.33,0,51.52-13.48,66.26-34.16l-9.18-6.56c-12.7,17.82-33.53,29.44-57.08,29.44-27.46,0-51.22-15.79-62.71-38.79.24-.02,14.37-1.16,24.72.9,12.07,2.41,25.68,15.99,25.68,15.99-.98-3.06-1.95-18.34-.78-27.7,1.17-9.36,5.66-15.41,8.06-19.83,2.4-4.42,4.42-5.46,4.42-5.46,0,0,2.93,1.3,7.87,10.01,4.94,8.71,5.27,16.58,5.79,21.72.52,5.13-1.04,21.26-1.04,21.26,0,0,8.97-8.13,16.84-13.33,7.87-5.2,16.51-6.7,24.32-7.41,4.22-.39,7.76.16,10.89.98,2.65.69,5.01,1.58,7.25,2.27,1.18.36,2.37.82,3.5,1.31,3.56,1.54,6.53,3.37,6.53,3.37l5.24-9.95s-3.35-2.02-8.06-4.11Z"/>
</svg>