<?xml version="1.0" encoding="UTF-8"?>
<svg id="Layer_1" data-name="Layer 1" xmlns="http://www.w3.org/2000/svg" xmlns:xlink="http://www.w3.org/1999/xlink" viewBox="0 0 287.32 240.45">
  <defs>
    <style>
      .cls-1 {
        fill: url(#linear-gradient);
      }
    </style>
    <linearGradient id="linear-gradient" x1="101.15" y1="269.42" x2="232.75" y2="19.06" gradientUnits="userSpaceOnUse">
      <stop offset="0" stop-color="#00454e"/>
      <stop offset=".69" stop-color="#06c3bb"/>
      <stop offset="1" stop-color="#89dfd6"/>
    </linearGradient>
  </defs>
  <path class="cls-1" d="M248.29,87.11,248.34,87.05,249.9,85.03,250,84.9,249.9,85.03,31.9,198.23H15.59s1.54,2.04,1.54,2.61v17.95c0,.5-1.54,2.67-1.54,2.67h8.98s-1.53-2.16-1.53-2.67v-6.15h8.87c3.87,0,7.02-3.14,7.02-7.02v-.37c0-3.88-3.15-7.02-7.02-7.02ZM30.82,207.5h-7.78v-4.26h7.78c1.18,0,2.13.95,2.13,2.13s-.95,2.13-2.13,2.13ZM130.04,218.93v.03s0-.02,0-.02h0ZM110.85,202.36c-5.96,0-10.79,4.31-10.79,9.61,0,4.75,3.87,8.7,8.94,9.48h3.69c5.08-.78,8.94-4.73,8.94-9.48,0-5.31-4.83-9.61-10.79-9.61ZM110.85,217.45c-2.91,0-5.26-2.45-5.26-5.47s2.35-5.48,5.26-5.48,5.27,2.45,5.27,5.48-2.36,5.47-5.27,5.47ZM245.14,212.87s.02-.07,0-.11l-1.15-2.91s-.01-.03-.02-.04c0,0,.02.02.03.04l1.15,2.91s.01.08,0,.11ZM226.88,221.47v-.02M211.3,202.36l-.62,1.15c-.35.65-.53,1.37-.53,2.11v9.11c0,3.71-3.01,6.72-6.72,6.72h-5.65c-3.71,0-6.72-3.01-6.72-6.72v-12.37h6.6l-.54,1c-.4.75-.61,1.58-.61,2.43v8.32c0,1.7,1.39,3.09,3.09,3.09h2.4c1.7,0,3.09-1.39,3.09-3.09v-8.6c0-.74-.18-1.46-.53-2.11l-.56-1.04h7.3ZM226.88,221.47v-.02M60.64,213.71h-.07M110.85,202.36c-5.96,0-10.79,4.31-10.79,9.61,0,4.75,3.87,8.7,8.94,9.48.59.09,1.22.14,1.85.14s1.24-.05,1.85-.14c5.08-.78,8.94-4.73,8.94-9.48,0-5.31-4.83-9.61-10.79-9.61ZM110.85,217.45c-2.91,0-5.26-2.45-5.26-5.47s2.35-5.48,5.26-5.48,5.27,2.45,5.27,5.48-2.36,5.47-5.27,5.47ZM61.58,202.36l-.11.21-.16-.21h.27ZM93.22,218.94v-.02M93.22,218.94v-.02M147.81,218.74v-.07M147.82,219.77c.45.77,1.1,1.68,1.1,1.68h-8.4s.74-1.04,1.2-1.85l-11.67-12.31v11.64h0s0,.02,0,.03c.23.7,1.5,2.49,1.5,2.49h-8.4s.92-1.3,1.34-2.12v-17.34c0-.69-.16-1.38-.46-2l-.69-1.42h8.51v.44s0,.95,0,.95c0,.63.24,1.24.67,1.7l.67.71,9.25,9.76v-10.38c0-.65-.15-1.3-.43-1.88l-.62-1.29h7.62l-.73,1.47c-.29.59-.45,1.25-.45,1.91v17.82ZM99.72,200.9v7.12l-.5-.4c-.58-.46-1.3-.71-2.05-.71h-3.94v12.03l1.52,2.51h-8.4s1.31-1.84,1.51-2.51c.02-.06.06-.21.12-.24v-11.79h-4.3c-.74,0-1.46.25-2.05.71l-.45.36v-7.03l.89.7c.58.46,1.3.71,2.05.71h12.61c.74,0,1.47-.25,2.05-.71l.94-.75ZM189.65,200.9v7.12l-.5-.4c-.58-.46-1.3-.71-2.05-.71h-3.94v12.03l1.52,2.51h-8.4s1.31-1.84,1.51-2.51c.02-.06.06-.21.12-.24v-11.79h-4.3c-.74,0-1.46.25-2.05.71l-.45.36v-7.03l.89.7c.58.46,1.3.71,2.05.71h12.61c.74,0,1.47-.25,2.05-.71l.94-.75ZM248.56,202.36,239.69,202.36,239.59,202.23,239.69,202.36,255.65,202.36,248.56,202.36,233.2,220.9l-.71-.99-.62-.86h0s-.3-.43-.3-.43v-.02s-3.57-4.97-3.57-4.97c1.24,0,2.36-.5,3.17-1.31.81-.81,1.31-1.94,1.31-3.17v-2.29c0-2.47-2.01-4.49-4.49-4.49h-15.76l1.15,2.13v14.21c-.06.02-.1.18-.12.24-.21.68-1.51,2.51-1.51,2.51h8.4s-.36-.51-.73-1.09c-.43-.66-.66-1.44-.66-2.23v-2.85c0-.91.74-1.65,1.65-1.65h.19c.89,0,1.73.47,2.19,1.22l2.47,4.04c.49.8.45,1.8-.08,2.57h1.54l.09-.04.03.04h6.34v-.57.02ZM226.88,208.4c0,.61-.49,1.1-1.1,1.1h-5.89c-.61,0-1.1-.49-1.1-1.1v-.48c0-.61.49-1.1,1.1-1.1h5.89c.61,0,1.1.49,1.1,1.1v.48ZM271.73,215.55v6.92s-.88-.63-1.57-1.02h-15.11v-17.02l-1.6-2.08h8.66l-1.56,2.02v12.36h9.3c.7-.34,1.88-1.18,1.88-1.18ZM254.5,220.87l-7.5-15.06c-.4-.8-.3-1.76.25-2.47l.78-.99h-8.33l.77.99c.55.7.65,1.66.25,2.46l-7.51,15.06v.58h7.13v-1.18c0-.15-.04-.29-.11-.41l-.43-.75c-.14-.24-.15-.54-.03-.79l.35-.71c.14-.29.43-.47.75-.47h6.51c.32,0,.62.18.76.47l.38.77c.12.25.11.55-.03.79l-.43.74c-.08.13-.11.28-.11.42v1.12h6.57v-.57h0ZM245.15,212.81s0,.04-.01.06c-.02.05-.07.08-.13.08h-2.3c-.1,0-.17-.1-.13-.2l1.15-2.91c.02-.06.08-.09.13-.09.04,0,.08.02.11.06.01,0,.02.02.03.04l1.15,2.91s0,.03,0,.04h0ZM171.24,220.87l-7.42-14.91c-.44-.89-.34-1.96.28-2.74l.67-.86h-8.33l.67.86c.61.78.72,1.85.28,2.74l-7.42,14.91h0v.58h7.13v-1.18c0-.15-.04-.29-.11-.41l-.43-.74c-.14-.24-.15-.54-.04-.79l.35-.7c.14-.29.44-.47.76-.47h6.51c.32,0,.61.18.75.47l.38.78c.13.25.11.54-.03.78l-.43.74c-.07.13-.11.27-.11.42v1.11h6.57v-.57h0ZM161.89,212.87s-.08.08-.14.08h-2.29c-.11,0-.18-.1-.14-.2l1.15-2.91c.02-.06.08-.09.13-.09.04,0,.08.02.11.06,0,0,.01.02.02.04l1.15,2.91s.01.08,0,.11ZM245.14,212.87s.02-.07,0-.11l-1.15-2.91s-.01-.03-.02-.04c0,0,.02.02.03.04l1.15,2.91s.01.08,0,.11ZM255.65,202.36,69.34,204.15,74.85,212.76c-.16.22-.25.49-.25.76v5.19s.05.05.05.07c0,.04,0,.09.03.15.2.68,1.51,2.51,1.51,2.51h-8.4s1.31-1.84,1.51-2.51c.02-.06.03-.11.03-.15,0-.02,0-.04.02-.05v-5.03c0-.27-.09-.54-.25-.76l-7.63-10.38.11-.21h8.73l-.5.94c-.28.52-.24,1.16.11,1.64l2.24,3.06,1.93-2.91c.31-.47.34-1.08.07-1.58l-.61-1.14h7.63v1.8l-6.33,8.61ZM74.6,204.31,74.7,204.5,205.14,204.5l-.06-.11M46.51,204.5,61.58,202.36h-.27M60.42,204.5,60.56,204.25,55.23,204.5,62.17,221.45h-8.4s.54-.76.98-1.48c.31-.51.47-1.1.47-1.71v-4.56h-8.69v5.01c.03.15.06.16.07.22.21.68,1.51,2.51,1.51,2.51h-8.4s.37-.51.74-1.1c.34-.53.52-1.15.52-1.78v-12.83c0-.87-.22-1.72-.63-2.49l-.48-.89h7.8l-.51.94c-.41.77-.63,1.62-.63,2.49v3.37h8.69v-3.35c0-.87-.21-1.72-.63-2.49l-.52-.97h7.23l.16.21-.27.51c-.41.76-.63,1.62-.63,2.49v13.14s.08.18.1.23c.21.68,1.51,2.51,1.51,2.51ZM213.4,204.5h0M215.09,120.62c1.84-6.79,2.81-13.92,2.81-21.29,0-44.92-36.41-81.34-81.34-81.34S55.23,54.4,55.23,99.32c0,2.46.11,4.88.32,7.29l11.2-1.42c-.16-1.93-.24-3.89-.24-5.86,0-38.69,31.37-70.06,70.06-70.06s70.06,31.37,70.06,70.06c0,6.08-.77,11.97-2.23,17.59-.75-.17-1.5-.32-2.25-.45-10.14-1.69-29.71-1.63-41.09,6.76,0,0-2.15-18.07-9.69-28.28-7.54-10.21-15.17-14.79-15.17-14.79-7.72,5.32-15.43,13.59-20,23.91-3.67,8.29-4.81,19.7-4.81,19.7,0,0-6.54-2.15-12.87-3.46-6.34-1.32-17.07-1.22-21.94-1.02-1.6.06-4.21.31-7,.6-4.52.48-9.5,1.11-11.36,1.35,9.57,34.28,41.02,59.43,78.35,59.43,27.33,0,51.52-13.48,66.26-34.16l-9.18-6.56c-12.7,17.82-33.53,29.44-57.08,29.44-27.46,0-51.22-15.79-62.71-38.79.24-.02,14.37-1.16,24.72.9,12.07,2.41,25.68,15.99,25.68,15.99-.98-3.06-1.95-18.34-.78-27.7,1.17-9.36,5.66-15.41,8.06-19.83,2.4-4.42,4.42-5.46,4.42-5.46,0,0,2.93,1.3,7.87,10.01,4.94,8.71,5.27,16.58,5.79,21.72.52,5.13-1.04,21.26-1.04,21.26,0,0,8.97-8.13,16.84-13.33,7.87-5.2,16.51-6.7,24.32-7.41,4.22-.39,7.76.16,10.89.98,2.65.69,5.01,1.58,7.25,2.27,1.18.36,2.37.82,3.5,1.31,3.56,1.54,6.53,3.37,6.53,3.37l5.24-9.95s-3.35-2.02-8.06-4.11Z"/>
</svg>