<?xml version="1.0" encoding="UTF-8"?>
<svg id="Layer_1" data-name="Layer 1" xmlns="http://www.w3.org/2000/svg" xmlns:xlink="http://www.w3.org/1999/xlink" viewBox="0 0 415.02 38.81">
  <defs>
    <style>
      .cls-1 {
        fill: url(#linear-gradient);
      }
    </style>
    <linearGradient id="linear-gradient" x1="158.16" y1="116.81" x2="266.71" y2="-89.72" gradientUnits="userSpaceOnUse">
      <stop offset="0" stop-color="#00454e"/>
      <stop offset=".69" stop-color="#06c3bb"/>
      <stop offset="1" stop-color="#89dfd6"/>
    </linearGradient>
  </defs>
  <path class="cls-1" d="M36.45,1.71H11.49s2.36,3.13,2.36,3.99v27.47c0,.77-2.36,4.08-2.36,4.08h13.74s-2.35-3.31-2.35-4.08v-9.41h13.57c5.93,0,10.74-4.8,10.74-10.74v-.57c0-5.94-4.81-10.74-10.74-10.74ZM34.79,15.89h-11.91v-6.52h11.91c1.81,0,3.27,1.46,3.27,3.27s-1.46,3.25-3.27,3.25ZM313.82,8.03l-.95,1.77c-.53.99-.81,2.1-.81,3.23v13.94c0,5.68-4.61,10.29-10.29,10.29h-8.64c-5.68,0-10.29-4.61-10.29-10.29V8.03h10.1l-.82,1.54c-.61,1.14-.94,2.42-.94,3.72v12.73c0,2.6,2.13,4.73,4.73,4.73h3.68c2.6,0,4.73-2.13,4.73-4.73v-13.16c0-1.13-.28-2.24-.81-3.23l-.86-1.6h11.18ZM160.09,8.03c-9.12,0-16.51,6.59-16.51,14.71,0,7.28,5.92,13.31,13.69,14.51.9.14,1.86.22,2.82.22s1.9-.08,2.82-.22c7.78-1.2,13.69-7.23,13.69-14.51,0-8.12-7.39-14.71-16.51-14.71ZM160.09,31.13c-4.45,0-8.05-3.76-8.05-8.38s3.6-8.38,8.05-8.38,8.06,3.75,8.06,8.38-3.61,8.38-8.06,8.38ZM102.36,25.4v7.7s.04.05.04.08c0,.06.01.13.04.22.32,1.04,2.31,3.85,2.31,3.85h-12.34s1.99-2.81,2.31-3.85c.03-.09.04-.16.04-.22,0-.03.01-.06.04-.08v-7.7c0-.42-.14-.83-.39-1.17l-11.67-15.88-.24-.33h13.77l-.77,1.44c-.43.8-.36,1.77.18,2.51l2.9,3.95,2.9-3.95c.54-.74.61-1.71.18-2.51l-.77-1.44h13.77l-.24.33-11.67,15.88c-.25.34-.39.75-.39,1.17ZM217.07,35.36c.62.98,1.27,1.89,1.27,1.89h-12.86s.59-.83,1.18-1.75c.39-.62.32-1.42-.18-1.95l-17.02-17.96v17.81h0s0,.03,0,.04c.35,1.07,2.3,3.81,2.3,3.81h-12.86s1.41-1.99,2.05-3.24V7.47c0-1.06-.24-2.11-.71-3.06l-1.06-2.18h13.02v.68s0,1.45,0,1.45c0,.97.37,1.9,1.03,2.6l1.02,1.08,14.16,14.94V7.07c0-1-.23-1.98-.66-2.88l-.95-1.97h11.67l-1.11,2.25c-.45.91-.68,1.91-.68,2.93v26.52c0,.51.14,1.01.41,1.44ZM143.04,5.79v10.89l-.77-.61c-.89-.7-2-1.09-3.13-1.09h-6.04v16.99c0,.93.26,1.85.74,2.65l1.58,2.62h-12.86s2-2.81,2.31-3.85c.03-.09.09-.33.18-.37V14.99h-6.58c-1.14,0-2.24.38-3.13,1.09l-.69.55V5.86l1.36,1.08c.89.71,2,1.09,3.14,1.09h19.31c1.14,0,2.24-.38,3.14-1.09l1.44-1.14ZM280.69,5.79v10.89l-.77-.61c-.89-.7-2-1.09-3.13-1.09h-6.04v16.94c0,.97.26,1.92.76,2.75l1.56,2.58h-12.86s2-2.81,2.31-3.85c.03-.09.09-.33.18-.37V14.99h-6.58c-1.14,0-2.24.38-3.13,1.09l-.69.55V5.86l1.36,1.08c.89.71,2,1.09,3.14,1.09h19.31c1.14,0,2.24-.38,3.14-1.09l1.44-1.14ZM347.35,36.41l-1.09-1.52-.95-1.32h0s-.45-.66-.45-.66l-.02-.03-5.45-7.6c1.9,0,3.62-.77,4.86-2.02,1.25-1.24,2.01-2.96,2.01-4.86v-3.5c0-3.79-3.08-6.87-6.87-6.87h-24.11l1.75,3.26h0v21.75c-.09.04-.15.28-.18.37-.32,1.04-2.31,3.84-2.31,3.84h12.85s-.55-.78-1.11-1.66c-.66-1.02-1.01-2.21-1.01-3.42v-4.36c0-1.4,1.14-2.53,2.54-2.53h.29c1.36,0,2.64.71,3.35,1.87l3.79,6.18c.75,1.22.69,2.75-.13,3.92h2.36l.14-.06.04.06h9.71v-.87l-.02.03ZM337.67,17.28c0,.93-.75,1.69-1.68,1.69h-9.02c-.93,0-1.69-.76-1.69-1.69v-.74c0-.93.76-1.68,1.69-1.68h9.02c.93,0,1.68.75,1.68,1.68v.74ZM406.32,28.22v10.59s-1.34-.96-2.4-1.56h-23.13V11.2l-2.46-3.18h13.26l-2.38,3.09v18.92h14.23c1.07-.53,2.87-1.81,2.87-1.81ZM379.95,36.37l-11.49-23.05c-.61-1.23-.46-2.7.39-3.78l1.19-1.51h-12.75l1.18,1.51c.85,1.08,1,2.55.39,3.77l-11.49,23.06v.88h10.9v-1.8c0-.23-.05-.44-.17-.64l-.66-1.14c-.22-.37-.23-.83-.04-1.21l.53-1.08c.22-.44.67-.72,1.16-.72h9.96c.49,0,.94.29,1.16.73l.57,1.18c.19.38.17.83-.04,1.2l-.66,1.14c-.12.19-.17.42-.17.63v1.71h10.05v-.87h-.01ZM365.64,24.03s0,.06-.02.09c-.03.07-.11.13-.2.13h-3.52c-.15,0-.26-.15-.21-.31l1.77-4.45c.03-.09.12-.14.2-.14.07,0,.13.03.17.08.01.01.02.02.02.03s.01.02.01.03l1.76,4.46s.02.04.02.06v.02ZM365.64,24.01s-.01-.04-.02-.06l-1.76-4.46s-.01-.02-.01-.03c.01.01.02.02.02.03l1.76,4.46s.01.04.01.06ZM252.52,36.37l-11.37-22.83c-.68-1.36-.51-3,.43-4.2l1.02-1.31h-12.74l1.03,1.31c.93,1.2,1.1,2.84.42,4.2l-11.36,22.83h-.01v.88h10.91v-1.8c0-.23-.06-.45-.17-.64l-.66-1.14c-.22-.37-.23-.82-.05-1.21l.53-1.07c.22-.44.67-.73,1.16-.73h9.97c.49,0,.93.28,1.14.72l.58,1.19c.2.38.17.83-.04,1.2l-.66,1.14c-.12.19-.18.41-.18.64v1.7h10.06v-.87h-.01ZM238.2,24.12c-.04.07-.12.13-.22.13h-3.5c-.16,0-.27-.15-.22-.31l1.77-4.45c.03-.09.11-.14.2-.14.07,0,.13.03.17.08.01.01.03.04.04.06l1.76,4.45c.02.07.02.12,0,.18ZM71.39,32.38v-6.98h-13.3v7.67c.04.23.08.25.11.33.32,1.05,2.31,3.85,2.31,3.85h-12.86s.56-.79,1.14-1.69c.52-.81.79-1.76.79-2.72V13.2c0-1.33-.33-2.64-.96-3.81l-.74-1.37h11.94l-.77,1.44c-.63,1.17-.96,2.48-.96,3.81v5.17h13.3v-5.13c0-1.32-.33-2.63-.95-3.8l-.8-1.49h11.65l-.35.33-.42.78c-.63,1.17-.96,2.48-.96,3.81v20.11c.07.03.13.27.16.35.31,1.05,2.31,3.85,2.31,3.85h-12.86s.82-1.16,1.5-2.26c.48-.78.72-1.69.72-2.61Z"/>
</svg>